<svg width="14" height="14" viewBox="0 0 14 14" fill="none" xmlns="http://www.w3.org/2000/svg">
<g id="fi-rr-angle-small-down">
<path id="Vector" d="M10.9131 4.85894C10.8588 4.79797 10.7943 4.74957 10.7233 4.71654C10.6522 4.68351 10.5759 4.6665 10.499 4.6665C10.422 4.6665 10.3457 4.68351 10.2746 4.71654C10.2036 4.74957 10.1391 4.79797 10.0848 4.85894L7.41347 7.83857C7.35925 7.89955 7.29474 7.94794 7.22366 7.98097C7.15258 8.014 7.07635 8.03101 6.99935 8.03101C6.92235 8.03101 6.84611 8.014 6.77504 7.98097C6.70396 7.94794 6.63945 7.89955 6.58523 7.83857L3.91386 4.85894C3.85964 4.79797 3.79513 4.74957 3.72406 4.71654C3.65298 4.68351 3.57674 4.6665 3.49975 4.6665C3.42275 4.6665 3.34651 4.68351 3.27543 4.71654C3.20436 4.74957 3.13985 4.79797 3.08563 4.85894C2.97699 4.98084 2.91602 5.14572 2.91602 5.3176C2.91602 5.48947 2.97699 5.65436 3.08563 5.77625L5.76282 8.76238C6.09091 9.12788 6.53565 9.33317 6.99935 9.33317C7.46305 9.33317 7.90779 9.12788 8.23587 8.76238L10.9131 5.77625C11.0217 5.65436 11.0827 5.48947 11.0827 5.3176C11.0827 5.14572 11.0217 4.98084 10.9131 4.85894Z" fill="#AFB2BF"/>
</g>
</svg>
